<svg xmlns="http://www.w3.org/2000/svg" viewBox="0 0 1000 1000" role="img" aria-label="Kaleta"><rect width="1000" height="1000" rx="225" fill="#121212"/><g transform="translate(186.0 779.4) scale(0.8135)"><path d="M36 0V-700H194V-329Q228 -347 252.5 -370Q277 -393 294 -419.5Q311 -446 321.5 -473.5Q332 -501 339 -528H525Q514 -488 493.5 -450.5Q473 -413 443 -380.5Q413 -348 373.5 -322Q334 -296 286 -279V-271Q348 -281 387.5 -273.5Q427 -266 450 -245.5Q473 -225 485.5 -194Q498 -163 505 -125L528 0H353L342 -88Q338 -120 331 -148Q324 -176 304 -193.5Q284 -211 241 -211H194V0Z" fill="#F6F4EE"/><path d="M632 13Q581 13 555.5 -9Q530 -31 530 -77Q530 -124 555.5 -146Q581 -168 632 -168Q684 -168 710 -146Q736 -124 736 -77Q736 13 632 13Z" fill="#FF4F2E"/></g></svg>
